<?xml version="1.0" standalone="no"?>
<!DOCTYPE svg PUBLIC "-//W3C//DTD SVG 20010904//EN"
 "http://www.w3.org/TR/2001/REC-SVG-20010904/DTD/svg10.dtd">
<svg version="1.0" xmlns="http://www.w3.org/2000/svg"
 width="40.000000pt" height="40.000000pt" viewBox="0 0 40.000000 40.000000"
 preserveAspectRatio="xMidYMid meet">

<g transform="translate(0.000000,40.000000) scale(0.100000,-0.100000)"
fill="#fff" stroke="none">
<path d="M135 379 c-67 -8 -115 -24 -115 -38 0 -5 19 -2 43 7 57 21 217 21
275 0 23 -9 45 -12 47 -7 7 10 -84 36 -145 41 -25 2 -72 1 -105 -3z"/>
<path d="M87 336 c-59 -16 -64 -21 -37 -36 16 -9 25 -9 33 -1 6 6 23 11 38 11
31 0 29 4 55 -152 10 -60 21 -108 24 -108 3 0 14 48 24 108 26 157 24 152 55
152 15 0 32 -5 38 -11 8 -8 17 -7 34 1 27 15 15 24 -56 40 -44 10 -50 9 -71
-11 l-24 -22 -23 21 c-27 25 -26 25 -90 8z"/>
</g>
</svg>
