<?xml version="1.0" encoding="UTF-8"?>
<svg version="1.1" xmlns="http://www.w3.org/2000/svg" width="1024" height="1024">
<path d="M0 0 C0.00238835 0.82530968 0.00477671 1.65061935 0.00723743 2.50093842 C0.06654301 22.6436039 0.1421917 42.7861513 0.23571491 62.92868805 C0.28055496 72.6697328 0.31999639 82.41074195 0.34643555 92.15185547 C0.36951158 100.64870918 0.40301559 109.1454491 0.44870156 117.64221239 C0.47250508 122.13528625 0.49131771 126.62824833 0.49761391 131.12138367 C0.50372363 135.36333368 0.52393166 139.60499816 0.55427551 143.84684181 C0.56296255 145.391381 0.56679808 146.93595766 0.56500816 148.48052025 C0.55302922 163.60727928 1.43766265 178.49306162 11.1875 190.75 C20.28732949 198.02986359 29.58719018 199.78365111 41 199 C49.51086964 197.44923896 57.05587502 194.0899806 62.25 187 C70.24401672 173.93076285 70.14801157 159.08373396 70.20532227 144.29077148 C70.21491608 142.71310681 70.22492701 141.13544463 70.23532104 139.55778503 C70.26221339 135.29813929 70.28330716 131.03848264 70.30332303 126.77879977 C70.32527996 122.31850145 70.35262089 117.85823612 70.37937927 113.39796448 C70.42917551 104.9621989 70.4741625 96.52641488 70.51740164 88.09061342 C70.56688612 78.48234323 70.62176247 68.87410617 70.67708123 59.26586807 C70.79070049 39.51060962 70.89758274 19.75531949 71 0 C75.66287681 -0.16748075 80.32592037 -0.32805376 84.98925781 -0.48217773 C86.57623729 -0.53560756 88.16315395 -0.59093771 89.75 -0.64819336 C92.02850804 -0.73007724 94.30715322 -0.80516524 96.5859375 -0.87890625 C97.65320572 -0.91945885 97.65320572 -0.91945885 98.74203491 -0.96083069 C103.77225659 -1.11387171 103.77225659 -1.11387171 106 0 C106.07025732 21.51501111 106.12306982 43.03000315 106.15543652 64.54510593 C106.17086817 74.53621328 106.19188645 84.52724912 106.22631836 94.51831055 C106.25633455 103.23226391 106.27560187 111.94616544 106.28226548 120.66016906 C106.28615715 125.26895471 106.29522485 129.87759215 106.31719017 134.48633003 C106.33774896 138.83572241 106.34379518 143.18490737 106.33932304 147.53434372 C106.34013966 149.11964869 106.34598873 150.70496154 106.35761642 152.29022408 C106.42950159 162.60809365 105.37053177 171.94203601 103 182 C102.78774371 183.0034121 102.57548742 184.00682421 102.35679913 185.04064274 C98.97563925 200.70629823 87.95130156 214.80473378 74.6875 223.4375 C61.85027793 230.78179868 49.46413784 233.18002203 34.8125 233.25 C33.22211914 233.2809375 33.22211914 233.2809375 31.59960938 233.3125 C21.76871265 233.36042637 12.92105011 231.31197965 3.75 227.8125 C2.83734375 227.46832031 1.9246875 227.12414062 0.984375 226.76953125 C0.32953125 226.51558594 -0.3253125 226.26164063 -1 226 C-1 225.34 -1 224.68 -1 224 C-1.886875 223.75636719 -2.77375 223.51273438 -3.6875 223.26171875 C-9.19715048 221.16311367 -12.8436584 217.0745775 -17 213 C-17.55945313 212.47664062 -18.11890625 211.95328125 -18.6953125 211.4140625 C-35.55428371 194.00233814 -37.34399839 166.31446502 -37.22705078 143.49609375 C-37.22648475 141.91739916 -37.22680695 140.33870405 -37.22793579 138.76000977 C-37.22850284 134.52963948 -37.21685518 130.29938573 -37.20278788 126.06904221 C-37.19017085 121.62749595 -37.18910146 117.18594618 -37.18673706 112.74438477 C-37.1805542 104.35839117 -37.16418724 95.97245055 -37.14403808 87.58648014 C-37.12157886 78.0288619 -37.1106606 68.47124095 -37.10064721 58.91360283 C-37.07981769 39.2757058 -37.04470475 19.63785626 -37 0 C-32.21301863 -0.16769074 -27.42587122 -0.3282422 -22.63842773 -0.48217773 C-21.00978145 -0.53555204 -19.3811979 -0.59087782 -17.75268555 -0.64819336 C-15.41208422 -0.73023211 -13.07134712 -0.80525361 -10.73046875 -0.87890625 C-9.63813179 -0.91945885 -9.63813179 -0.91945885 -8.52372742 -0.96083069 C-5.36954376 -1.05398179 -3.02200236 -1.00733412 0 0 Z " fill="#FFFFFF" transform="translate(693,489)"/>
<path d="M0 0 C11.88 0 23.76 0 36 0 C40.5 11.25 40.5 11.25 40 17 C40.66 17 41.32 17 42 17 C42.25394531 18.12277344 42.50789063 19.24554688 42.76953125 20.40234375 C43.11695705 21.91411548 43.46462644 23.42583124 43.8125 24.9375 C43.97814453 25.67291016 44.14378906 26.40832031 44.31445312 27.16601562 C45.38276967 31.78194939 46.68824146 36.23983346 48.22583008 40.72045898 C49.55662893 44.63899223 50.74581117 48.59984159 51.9375 52.5625 C52.20127441 53.43890137 52.46504883 54.31530273 52.73681641 55.21826172 C54.25684423 60.32871612 55.63768016 65.43925507 56.875 70.625 C58.61264459 77.83111432 60.78005703 84.86632724 63 91.9375 C65.74193432 100.67416002 68.2029801 109.36128721 70.11328125 118.31640625 C70.96574956 121.85771733 72.02983047 125.22611925 73.20825195 128.66772461 C76.93921924 139.65814411 80.16244982 150.83582516 82.61889648 162.1796875 C83.54851745 166.40124777 84.77186858 170.43223887 86.17260742 174.52075195 C87.76964745 179.30621713 89.15150814 184.15711181 90.5625 189 C90.86607422 190.02867187 91.16964844 191.05734375 91.48242188 192.1171875 C93.03342201 197.42910953 94.43482571 202.72430972 95.58618164 208.13671875 C96.0693267 210.31215419 96.69927488 212.39793525 97.4375 214.5 C97.69015625 215.23476563 97.9428125 215.96953125 98.203125 216.7265625 C98.46609375 217.47679687 98.7290625 218.22703125 99 219 C99.56692328 220.62346212 100.12952207 222.24844171 100.6875 223.875 C101.06455078 224.95394531 101.06455078 224.95394531 101.44921875 226.0546875 C102 228 102 228 102 231 C89.79 231 77.58 231 65 231 C61.31146518 218.42887112 57.64119159 205.85289547 54.0625 193.25 C53.75626709 192.18595947 53.45003418 191.12191895 53.13452148 190.02563477 C52.85423096 189.03233154 52.57394043 188.03902832 52.28515625 187.015625 C52.03644775 186.14196289 51.78773926 185.26830078 51.53149414 184.36816406 C51 182 51 182 51 178 C29.22 178.33 7.44 178.66 -15 179 C-16.65 185.27 -18.3 191.54 -20 198 C-20.99 200.97 -21.98 203.94 -23 207 C-23.47119568 208.78080502 -23.916292 210.56907725 -24.31640625 212.3671875 C-24.52330078 213.27210938 -24.73019531 214.17703125 -24.94335938 215.109375 C-25.36130286 216.97627712 -25.77793843 218.84347245 -26.19335938 220.7109375 C-26.50176758 222.05671875 -26.50176758 222.05671875 -26.81640625 223.4296875 C-26.99631104 224.23647949 -27.17621582 225.04327148 -27.36157227 225.87451172 C-28 228 -28 228 -30 231 C-32.69540315 231.26686213 -35.15847464 231.34818073 -37.8515625 231.29296875 C-38.62559418 231.28872391 -39.39962585 231.28447906 -40.19711304 231.28010559 C-42.67342677 231.26328998 -45.14893158 231.22563395 -47.625 231.1875 C-49.30207159 231.17245682 -50.97915592 231.15876778 -52.65625 231.14648438 C-56.77114581 231.11337721 -60.88543569 231.06157637 -65 231 C-64.4243011 226.05950858 -63.77142947 221.76366825 -62.0625 217.0625 C-60.58032716 212.81858064 -59.41454463 208.68234382 -58.52856445 204.28100586 C-58.00976567 202.0421435 -57.33992197 199.93800256 -56.58203125 197.76953125 C-55.08393755 193.34945352 -53.88597727 188.8992555 -52.75 184.375 C-50.86228514 177.01820472 -48.74729202 169.75460774 -46.5 162.5 C-44.10798859 154.7726519 -41.91102722 147.03164843 -39.91186523 139.19433594 C-38.30825483 132.98756544 -36.46320598 126.87164082 -34.5625 120.75 C-31.90141232 112.1717289 -29.54755986 103.55603646 -27.34448242 94.85009766 C-25.13356411 86.24161296 -22.49938514 77.78586237 -19.83154297 69.30981445 C-17.48844867 61.79271817 -15.51444094 54.2878425 -13.88671875 46.5859375 C-13.06461734 43.26131594 -12.00762533 40.22993695 -10.76928711 37.04882812 C-9.47733016 33.60798308 -8.4608408 30.09081856 -7.4375 26.5625 C-7.21916504 25.81677734 -7.00083008 25.07105469 -6.77587891 24.30273438 C-5.69161442 20.55486166 -4.67680642 16.82037178 -3.875 13 C-2.90871714 8.58270694 -1.42990141 4.28970424 0 0 Z M17 58 C16.22818831 60.91641097 15.45735855 63.83307326 14.6875 66.75 C14.45820801 67.61802246 14.22891602 68.48604492 13.99267578 69.38037109 C12.52324921 74.96045888 11.10379685 80.54890942 9.7734375 86.1640625 C9.12231306 88.55151877 8.38628481 90.85824266 7.58984375 93.19921875 C5.91886773 98.14448765 4.53637339 103.14627451 3.1875 108.1875 C2.66675966 110.11591053 2.14592333 112.04429514 1.625 113.97265625 C1.35945313 114.9589502 1.09390625 115.94524414 0.8203125 116.96142578 C-0.79887501 122.95916617 -2.44381432 128.94990842 -4.08325195 134.94213867 C-4.32003662 135.80943604 -4.55682129 136.6767334 -4.80078125 137.5703125 C-5.11269409 138.71137451 -5.11269409 138.71137451 -5.4309082 139.87548828 C-5.97620211 141.91115863 -6.48887096 143.95548384 -7 146 C9.17 146 25.34 146 42 146 C39.26672554 134.52024728 36.73138472 123.87194439 33.29248047 112.7434082 C30.62361337 104.07779164 28.50283601 95.2741354 26.35986328 86.46655273 C26.08126465 85.32516846 25.80266602 84.18378418 25.515625 83.0078125 C25.27102539 81.99348145 25.02642578 80.97915039 24.77441406 79.93408203 C23.97495265 76.90510119 23.00277296 73.9670071 22 71 C21.22377169 67.8446319 20.4985188 64.68095534 19.78125 61.51171875 C19.5234375 60.68285156 19.265625 59.85398437 19 59 C18.34 58.67 17.68 58.34 17 58 Z " fill="#FFFFFF" transform="translate(406,487)"/>
<path d="M0 0 C2.33599311 0.00629452 4.66683202 -0.0406307 7.00219727 -0.09130859 C27.03048802 -0.25831011 44.24898492 8.77079169 59.50024414 21.29931641 C61.66821289 23.63134766 61.66821289 23.63134766 61.66821289 27.63134766 C61.00821289 27.63134766 60.34821289 27.63134766 59.66821289 27.63134766 C59.44907227 28.32486328 59.22993164 29.01837891 59.00415039 29.73291016 C57.3334046 33.35774459 54.93028545 36.06392985 52.29321289 39.00634766 C48.4347119 43.31878994 45.40086449 47.51572025 42.66821289 52.63134766 C39.04185033 52.0459259 37.20935875 50.60488222 34.54321289 48.13134766 C31.8158405 45.5767288 31.8158405 45.5767288 28.66821289 43.63134766 C28.66821289 42.97134766 28.66821289 42.31134766 28.66821289 41.63134766 C27.78649414 41.35548828 26.90477539 41.07962891 25.99633789 40.79541016 C22.963239 39.73453754 20.28545733 38.43996988 17.41821289 37.00634766 C8.42689993 33.25996726 -1.72380628 32.83345996 -11.01147461 35.81103516 C-18.60588543 39.39470579 -23.11983505 43.75814809 -26.33178711 51.63134766 C-27.56682752 60.89415073 -26.85853243 68.95842966 -21.33178711 76.63134766 C-12.70902776 87.37696908 1.06325747 94.24755941 12.62133789 101.47900391 C25.27011722 109.41159552 37.83483386 118.254965 47.66821289 129.63134766 C47.66821289 130.29134766 47.66821289 130.95134766 47.66821289 131.63134766 C48.65821289 131.96134766 49.64821289 132.29134766 50.66821289 132.63134766 C52.42211914 135.17822266 52.42211914 135.17822266 54.23071289 138.38134766 C54.83012695 139.42806641 55.42954102 140.47478516 56.04711914 141.55322266 C57.4591656 144.23440968 58.6501308 146.78246559 59.66821289 149.63134766 C60.21541992 151.10474609 60.21541992 151.10474609 60.77368164 152.60791016 C62.33229608 158.26419691 61.99648887 164.18816669 61.98071289 170.00634766 C61.99682617 171.18712891 62.01293945 172.36791016 62.02954102 173.58447266 C62.03341958 180.55037456 61.34312022 186.20165985 58.66821289 192.63134766 C58.36399414 193.53884766 58.05977539 194.44634766 57.74633789 195.38134766 C55.40355841 201.74663531 52.02545466 206.48101144 47.66821289 211.63134766 C47.03141602 212.46021484 46.39461914 213.28908203 45.73852539 214.14306641 C37.38296256 224.18550702 25.99729867 229.32447659 13.66821289 232.63134766 C12.64985352 232.98068359 11.63149414 233.33001953 10.58227539 233.68994141 C-3.21730541 237.6138432 -19.98535637 235.13908254 -33.33178711 230.63134766 C-34.47905273 230.25751953 -35.62631836 229.88369141 -36.80834961 229.49853516 C-44.36321356 226.82690879 -50.71908978 223.10339617 -57.33178711 218.63134766 C-58.25991211 218.10798828 -59.18803711 217.58462891 -60.14428711 217.04541016 C-60.86616211 216.57876953 -61.58803711 216.11212891 -62.33178711 215.63134766 C-62.33178711 214.97134766 -62.33178711 214.31134766 -62.33178711 213.63134766 C-62.91444336 213.36580078 -63.49709961 213.10025391 -64.09741211 212.82666016 C-66.39352939 211.59831769 -68.13534729 210.22819827 -70.08178711 208.50634766 C-70.69538086 207.96751953 -71.30897461 207.42869141 -71.94116211 206.87353516 C-72.40006836 206.46361328 -72.85897461 206.05369141 -73.33178711 205.63134766 C-71.61115105 201.61653018 -68.9141568 198.38677981 -66.20678711 195.00634766 C-65.71976318 194.39259277 -65.23273926 193.77883789 -64.73095703 193.14648438 C-63.26827166 191.30511722 -61.80064293 189.46779458 -60.33178711 187.63134766 C-59.49705231 186.58455189 -58.66240943 185.53768283 -57.82788086 184.49072266 C-55.99956784 182.20124303 -54.16786188 179.91460396 -52.33178711 177.63134766 C-48.50508649 179.26225101 -45.71368882 181.73791703 -42.58178711 184.44384766 C-29.25884839 195.68269524 -15.84918743 201.30156939 1.72729492 199.88378906 C5.8937675 199.34188559 9.16483178 197.86788113 12.66821289 195.63134766 C13.74071289 195.09509766 14.81321289 194.55884766 15.91821289 194.00634766 C21.77132617 188.95138618 24.44073297 181.11897515 25.66821289 173.63134766 C25.57512752 170.14515885 25.57512752 170.14515885 24.66821289 166.63134766 C24.52770508 165.94298828 24.38719727 165.25462891 24.24243164 164.54541016 C20.97616403 151.88029085 9.05140105 144.35520549 -1.33178711 137.63134766 C-2.64900145 136.93337301 -3.97457815 136.24795617 -5.33178711 135.63134766 C-5.33178711 134.97134766 -5.33178711 134.31134766 -5.33178711 133.63134766 C-6.18385742 133.38642578 -7.03592773 133.14150391 -7.91381836 132.88916016 C-11.62622403 131.52299487 -14.74607112 129.68023291 -18.01928711 127.50634766 C-18.6301416 127.10528809 -19.24099609 126.70422852 -19.87036133 126.29101562 C-21.69841645 125.08200969 -23.51684087 123.85992665 -25.33178711 122.63134766 C-26.29987305 121.97650391 -27.26795898 121.32166016 -28.26538086 120.64697266 C-43.6409251 109.84615493 -58.45552271 95.93181006 -62.93920898 76.97583008 C-66.13008427 57.91987523 -62.84956113 40.61290038 -52.33178711 24.63134766 C-45.57185466 15.35330289 -36.71335329 9.26985993 -26.33178711 4.63134766 C-25.57776611 4.27532471 -24.82374512 3.91930176 -24.046875 3.55249023 C-16.07003428 0.18238924 -8.5240236 -0.04783303 0 0 Z " fill="#FFFFFF" transform="translate(891.331787109375,486.36865234375)"/>
<path d="M0 0 C2.29166977 0.00096613 4.57991059 -0.04061546 6.87109375 -0.08496094 C20.38932891 -0.19623001 31.82877816 3.01711863 43.62890625 9.81347656 C44.60053711 10.35198242 44.60053711 10.35198242 45.59179688 10.90136719 C47.13130604 11.75665006 48.66244615 12.62697526 50.19140625 13.50097656 C50.19140625 14.16097656 50.19140625 14.82097656 50.19140625 15.50097656 C51.27421875 15.84128906 51.27421875 15.84128906 52.37890625 16.18847656 C55.72792848 17.7513536 57.66388171 19.83682908 60.19140625 22.50097656 C60.85140625 22.83097656 61.51140625 23.16097656 62.19140625 23.50097656 C61.57785594 27.46545546 59.59284359 30.05344196 57.25390625 33.25097656 C56.54363281 34.23582031 55.83335937 35.22066406 55.1015625 36.23535156 C54.47121094 36.98300781 53.84085937 37.73066406 53.19140625 38.50097656 C52.53140625 38.50097656 51.87140625 38.50097656 51.19140625 38.50097656 C50.93617188 39.22671875 50.6809375 39.95246094 50.41796875 40.70019531 C49.12339551 43.65627497 47.58685521 45.80662322 45.56640625 48.31347656 C44.93476563 49.10367188 44.303125 49.89386719 43.65234375 50.70800781 C43.17023438 51.2996875 42.688125 51.89136719 42.19140625 52.50097656 C38.05018613 51.98924685 36.32349873 49.80622809 33.50390625 46.87597656 C23.80874881 37.60989703 11.7749107 33.54531696 -1.53564453 33.79370117 C-7.81691378 34.17179834 -12.52981981 36.09711599 -17.80859375 39.50097656 C-18.79859375 39.83097656 -19.78859375 40.16097656 -20.80859375 40.50097656 C-21.91028359 42.19866891 -21.91028359 42.19866891 -22.80859375 44.50097656 C-23.31519531 45.54125 -23.82179687 46.58152344 -24.34375 47.65332031 C-26.00151613 51.53659453 -26.31081196 55.24784705 -26.24609375 59.43847656 C-26.23147095 60.49723999 -26.23147095 60.49723999 -26.21655273 61.57739258 C-25.88932321 71.16910015 -22.07657345 75.89121383 -15.2734375 82.35253906 C-7.74148455 88.91763276 0.97092419 93.90426269 9.43359375 99.16113281 C31.62231085 112.95929656 55.18217876 129.48796345 61.53125 156.31347656 C64.91489781 175.22182879 61.37283631 193.07222342 50.42773438 208.84423828 C47.46695874 212.81181795 44.09784849 216.45345608 40.19140625 219.50097656 C39.53140625 219.50097656 38.87140625 219.50097656 38.19140625 219.50097656 C38.19140625 220.16097656 38.19140625 220.82097656 38.19140625 221.50097656 C35.20289354 223.18893281 32.19928839 224.84782559 29.19140625 226.50097656 C28.56878906 226.85804688 27.94617188 227.21511719 27.3046875 227.58300781 C16.83255846 233.28475269 6.63712878 234.85804151 -5.12109375 234.87597656 C-6.13494141 234.87758789 -7.14878906 234.87919922 -8.19335938 234.88085938 C-14.32204471 234.79043615 -19.89156453 234.067991 -25.80859375 232.50097656 C-26.93523437 232.24058594 -28.061875 231.98019531 -29.22265625 231.71191406 C-44.08211472 227.84339324 -56.17678861 220.37038698 -67.80859375 210.50097656 C-68.60910156 209.84613281 -69.40960938 209.19128906 -70.234375 208.51660156 C-71.80859375 206.50097656 -71.80859375 206.50097656 -71.9140625 204.23925781 C-70.29110461 200.2191395 -67.78260185 197.08485485 -65.12109375 193.68847656 C-64.60353516 193.01494141 -64.08597656 192.34140625 -63.55273438 191.64746094 C-62.50771709 190.28750694 -61.45708656 188.9318478 -60.40087891 187.58056641 C-59.30025984 186.14311267 -58.22855907 184.68321989 -57.18115234 183.20654297 C-56.6598877 182.47483887 -56.13862305 181.74313477 -55.6015625 180.98925781 C-55.13645264 180.32063721 -54.67134277 179.6520166 -54.19213867 178.96313477 C-53.50728394 178.23936646 -53.50728394 178.23936646 -52.80859375 177.50097656 C-49.80859375 177.50097656 -49.80859375 177.50097656 -47.515625 179.68457031 C-46.62230469 180.61398437 -45.72898437 181.54339844 -44.80859375 182.50097656 C-35.03554606 190.66700032 -35.03554606 190.66700032 -23.80859375 196.50097656 C-23.12410156 196.79617188 -22.43960938 197.09136719 -21.734375 197.39550781 C-12.68204707 200.76131395 -1.17530859 201.42563001 7.94921875 198.15332031 C10.00282121 197.10672533 12.02745591 195.99934677 14.00390625 194.81347656 C16.19140625 193.50097656 16.19140625 193.50097656 18.19140625 193.50097656 C18.62259766 192.63279297 18.62259766 192.63279297 19.0625 191.74707031 C19.76290545 190.35353006 20.48109864 188.96859846 21.2265625 187.59863281 C25.10573761 179.91403117 26.56148345 171.07218014 24.12890625 162.68847656 C18.35550172 148.56425476 4.6125582 141.32541448 -7.78466797 133.74462891 C-48.33475812 108.82760126 -48.33475812 108.82760126 -57.80859375 89.50097656 C-57.80859375 88.51097656 -57.80859375 87.52097656 -57.80859375 86.50097656 C-58.46859375 86.50097656 -59.12859375 86.50097656 -59.80859375 86.50097656 C-65.56928049 70.86482685 -65.09207916 49.93071467 -58.58984375 34.63378906 C-55.08664662 27.6079326 -50.32434766 22.03628989 -44.80859375 16.50097656 C-44.2671875 15.93636719 -43.72578125 15.37175781 -43.16796875 14.79003906 C-37.73947182 9.608292 -30.64214203 6.43472327 -23.80859375 3.50097656 C-22.89376221 3.07727783 -22.89376221 3.07727783 -21.96044922 2.64501953 C-14.89397992 -0.21323196 -7.50090813 -0.02221081 0 0 Z " fill="#FFFFFF" transform="translate(142.80859375,486.4990234375)"/>
<path d="M0 0 C49.17 0 98.34 0 149 0 C149 8.21255725 146.2336758 13.98906672 140.5625 19.9375 C135.51089959 24.89172016 130.5579841 26.34102526 123.65350342 26.3732605 C122.70259827 26.36247467 121.75169312 26.35168884 120.77197266 26.34057617 C119.75672516 26.34101425 118.74147766 26.34145233 117.69546509 26.34190369 C114.35146622 26.33981953 111.00797341 26.31650551 107.6640625 26.29296875 C105.340935 26.28737148 103.01780395 26.283102 100.69467163 26.28010559 C94.58886896 26.26866718 88.48328135 26.23920834 82.37756348 26.20599365 C76.14366566 26.17527131 69.909733 26.16159561 63.67578125 26.14648438 C51.45041128 26.11433788 39.2252572 26.06157786 27 26 C27 33.26 27 40.52 27 48 C28.51367661 47.99777939 30.02735321 47.99555878 31.5868988 47.99327087 C45.81710094 47.9730431 60.04729802 47.95796966 74.27751064 47.94818783 C81.59427402 47.94302494 88.9110267 47.93598238 96.2277832 47.92456055 C102.60283018 47.91461349 108.97786941 47.90814652 115.35292393 47.90591151 C118.73048014 47.90460443 122.10801416 47.90151881 125.48556328 47.89426994 C129.25007343 47.88706387 133.01453685 47.88600887 136.77905273 47.88647461 C137.90689682 47.88287933 139.03474091 47.87928406 140.19676208 47.87557983 C141.72599304 47.87764183 141.72599304 47.87764183 143.28611755 47.87974548 C144.17749137 47.87882369 145.06886518 47.8779019 145.98725033 47.87695217 C148 48 148 48 149 49 C149.09492895 51.34258063 149.12558483 53.65542119 149.11352539 55.99829102 C149.11364593 56.74182548 149.11376646 57.48535994 149.11389065 58.25142574 C149.11314159 60.66894921 149.10551371 63.0863965 149.09765625 65.50390625 C149.09618681 66.99214643 149.09516611 68.48038713 149.09460449 69.96862793 C149.08935187 75.49992648 149.07539078 81.03121398 149.0625 86.5625 C149.041875 98.916875 149.02125 111.27125 149 124 C99.83 124 50.66 124 0 124 C0 115.8646582 0.55942028 111.34032626 6.125 105.625 C13.91308434 97.96458917 21.20583379 96.84514909 31.74731445 96.88647461 C32.72340164 96.88632858 33.69948883 96.88618256 34.70515442 96.8860321 C37.9245528 96.88672758 41.143893 96.8945029 44.36328125 96.90234375 C46.59815947 96.90420923 48.8330381 96.90563252 51.06791687 96.90663147 C56.94513074 96.91044643 62.82231983 96.92026802 68.69952393 96.93133545 C74.69876775 96.94157151 80.69801558 96.9461338 86.69726562 96.95117188 C98.46485638 96.96189119 110.23242225 96.97947974 122 97 C122 89.74 122 82.48 122 75 C81.74 75 41.48 75 0 75 C0 50.25 0 25.5 0 0 Z " fill="#FFFFFF" transform="translate(427,302)"/>
<path d="M0 0 C0 11.22 0 22.44 0 34 C-15.18 34 -30.36 34 -46 34 C-46 98.35 -46 162.7 -46 229 C-57.88 229 -69.76 229 -82 229 C-82 164.65 -82 100.3 -82 34 C-97.18 34 -112.36 34 -128 34 C-128 22.78 -128 11.56 -128 0 C-111.75387863 -0.1530721 -95.50773736 -0.30190954 -79.26150799 -0.4429636 C-71.71833712 -0.50859204 -64.17519255 -0.57614173 -56.63208008 -0.64819336 C-50.05854559 -0.71097875 -43.48499034 -0.77018075 -36.91138488 -0.82505554 C-33.42978571 -0.85424484 -29.94822365 -0.88524485 -26.46668053 -0.92053413 C-22.58288905 -0.95983358 -18.69905585 -0.99113373 -14.81518555 -1.02172852 C-13.65712906 -1.03467453 -12.49907257 -1.04762054 -11.30592346 -1.06095886 C-10.25003021 -1.06799835 -9.19413696 -1.07503784 -8.10624695 -1.08229065 C-7.18721934 -1.09058679 -6.26819174 -1.09888292 -5.32131481 -1.10743046 C-3 -1 -3 -1 0 0 Z " fill="#FFFFFF" transform="translate(345,489)"/>
<path d="M0 0 C0.02465288 4.68139254 0.04283739 9.36274759 0.05493164 14.04418945 C0.05997157 15.63794614 0.0668035 17.23169819 0.07543945 18.82543945 C0.08751999 21.11150253 0.09323155 23.39750467 0.09765625 25.68359375 C0.10281754 26.40026718 0.10797882 27.11694061 0.11329651 27.85533142 C0.11349263 29.57063672 0.06192007 31.28581266 0 33 C-0.33 33.33 -0.66 33.66 -1 34 C-16.18 34 -31.36 34 -47 34 C-47 98.35 -47 162.7 -47 229 C-58.55 229 -70.1 229 -82 229 C-82 164.65 -82 100.3 -82 34 C-97.18 34 -112.36 34 -128 34 C-129 33 -129 33 -129.11352539 29.85717773 C-129.11336633 28.46597303 -129.10767506 27.07476239 -129.09765625 25.68359375 C-129.0962413 24.95253922 -129.09482635 24.22148468 -129.09336853 23.46827698 C-129.08775408 21.12464368 -129.07519922 18.78110461 -129.0625 16.4375 C-129.05748686 14.85221492 -129.05292363 13.26692834 -129.04882812 11.68164062 C-129.03777997 7.7877239 -129.02050572 3.89387795 -129 0 C-112.62350407 -0.15387421 -96.24696744 -0.30190823 -79.87035656 -0.4429636 C-72.26665177 -0.5085926 -64.66297305 -0.57614253 -57.05932617 -0.64819336 C-50.43305372 -0.71097791 -43.80676068 -0.77017996 -37.18041784 -0.82505554 C-33.67087324 -0.85424535 -30.16136546 -0.88524566 -26.65187645 -0.92053413 C-22.73695163 -0.95983227 -18.82198542 -0.99113316 -14.90698242 -1.02172852 C-13.15587158 -1.04114754 -13.15587158 -1.04114754 -11.36938477 -1.06095886 C-10.30507736 -1.06799835 -9.24076996 -1.07503784 -8.14421082 -1.08229065 C-7.21780887 -1.09058679 -6.29140692 -1.09888292 -5.33693218 -1.10743046 C-3 -1 -3 -1 0 0 Z " fill="#FFFFFF" transform="translate(632,489)"/>
<path d="M0 0 C48.51 0 97.02 0 147 0 C147 25.08 147 50.16 147 76 C138.42 76 129.84 76 121 76 C121 59.83 121 43.66 121 27 C89.65 27 58.3 27 26 27 C26 43.17 26 59.34 26 76 C17.42 76 8.84 76 0 76 C-1.49732367 73.00535267 -1.0726552 70.31850765 -1.02172852 66.97998047 C-1.01193686 66.24623766 -1.00214521 65.51249485 -0.99205685 64.75651741 C-0.95912859 62.37664377 -0.9191433 59.99694764 -0.87890625 57.6171875 C-0.85756744 56.14982765 -0.83669017 54.68246101 -0.81628418 53.21508789 C-0.73728984 47.76830783 -0.64934802 42.3216605 -0.5625 36.875 C-0.376875 24.70625 -0.19125 12.5375 0 0 Z " fill="#FFFFFF" transform="translate(770,350)"/>
<path d="M0 0 C8.91 0 17.82 0 27 0 C27 31.68 27 63.36 27 96 C40.08462891 96.09087891 40.08462891 96.09087891 53.43359375 96.18359375 C59.64348942 96.22920738 65.85337798 96.27544422 72.06326199 96.32258511 C80.11808495 96.38364796 88.17291014 96.4432154 96.2277832 96.49731445 C102.60286076 96.54013615 108.97790216 96.58640895 115.35292393 96.63687855 C118.73045889 96.6634958 122.1079866 96.68834918 125.48556328 96.70907402 C129.25011097 96.7330394 133.01456229 96.76310436 136.77905273 96.79467773 C138.47081886 96.80331093 138.47081886 96.80331093 140.19676208 96.81211853 C141.21624939 96.82190735 142.23573669 96.83169617 143.28611755 96.84178162 C144.17749137 96.84823417 145.06886518 96.85468672 145.98725033 96.8613348 C148 97 148 97 149 98 C148.39497547 105.41155044 146.44657751 112.69307832 141 118 C133.44677548 123.85094655 127.22698597 124.85147005 117.83935547 124.68115234 C116.56017746 124.6820285 115.28099945 124.68290466 113.96305847 124.68380737 C110.48597019 124.68551557 107.0101462 124.6504614 103.53334951 124.60836363 C99.88860227 124.57062981 96.24381992 124.56731358 92.59890747 124.56021118 C85.71055798 124.54162825 78.82278589 124.49248156 71.93468964 124.43211424 C62.61714775 124.35224333 53.29944583 124.32006945 43.98164749 124.28510094 C29.32066659 124.22883301 14.66090361 124.10925874 0 124 C0 83.08 0 42.16 0 0 Z " fill="#FFFFFF" transform="translate(599,302)"/>
<path d="M0 0 C48.84 0 97.68 0 148 0 C148 10.10836707 145.57407687 13.59879978 139.328125 20.94921875 C125.84463848 32.826451 100.32673443 26 87 26 C87 58.34 87 90.68 87 124 C78.09 124 69.18 124 60 124 C59.9774412 111.51769651 59.95908038 99.03540647 59.94818783 86.55308723 C59.94296095 80.75755178 59.93586681 74.96203094 59.92456055 69.16650391 C59.91372479 63.57741018 59.90772169 57.98833056 59.90512276 52.39922714 C59.90326976 50.2629054 59.89965152 48.12658447 59.89426994 45.99026871 C59.8870504 43.00667887 59.88600945 40.0231479 59.88647461 37.03955078 C59.88287933 36.14907043 59.87928406 35.25859009 59.87557983 34.34112549 C59.88594784 28.22810432 59.88594784 28.22810432 61 26 C59.70900391 26.02094727 58.41800781 26.04189453 57.08789062 26.06347656 C52.27224941 26.13618646 47.45665619 26.18191225 42.640625 26.21972656 C40.56111475 26.23977159 38.48166037 26.26701513 36.40234375 26.30175781 C33.40350513 26.35058948 30.40541537 26.37304028 27.40625 26.390625 C26.48509399 26.41127014 25.56393799 26.43191528 24.61486816 26.45318604 C17.45267036 26.45564412 12.15080456 24.81047375 6.7578125 20 C6.21898438 19.34 5.68015625 18.68 5.125 18 C4.57070312 17.34 4.01640625 16.68 3.4453125 16 C-0.81775753 10.10083282 0 8.23269022 0 0 Z " fill="#FFFFFF" transform="translate(86,302)"/>
<path d="M0 0 C1.0904811 0.00092179 2.1809622 0.00184359 3.30448818 0.00279331 C4.55115765 0.00141865 5.79782711 0.00004398 7.08227444 -0.00137234 C8.47653127 0.00216727 9.87078785 0.00580209 11.26504421 0.00952244 C12.72330123 0.0098043 14.18155839 0.00964659 15.63981533 0.00907993 C19.61071618 0.00879193 23.58158708 0.01468906 27.55248094 0.02165389 C31.69783233 0.02788702 35.84318434 0.02849119 39.9885397 0.0296793 C47.84377459 0.03279274 55.69899564 0.04100629 63.55422443 0.05102879 C72.49482531 0.06218954 81.43542684 0.06770028 90.37603295 0.07272422 C108.77255694 0.0831889 127.16906802 0.10078858 145.56558132 0.12304783 C145.66916388 8.81792237 143.81532218 14.69970305 137.56558132 21.12304783 C132.54038482 24.72121084 128.29406456 27.24050277 121.9932394 27.26348972 C120.58648197 27.27205494 120.58648197 27.27205494 119.1513052 27.28079319 C118.12423458 27.28191105 117.09716396 27.28302891 116.03896999 27.28418064 C114.41416965 27.291628 114.41416965 27.291628 112.75654507 27.29922581 C109.16554032 27.31385616 105.57457975 27.32065091 101.98355007 27.32617283 C99.49114385 27.33192355 96.99873764 27.33768129 94.50633144 27.34344578 C89.94531868 27.35261412 85.38431861 27.35891342 80.82329768 27.36194253 C74.783791 27.3659759 68.74443979 27.37825141 62.70498562 27.40429783 C56.22410285 27.43181835 49.74335357 27.44468986 43.26241398 27.44661808 C40.79166777 27.44964621 38.32092245 27.45768009 35.85020924 27.47080326 C32.39344094 27.48785316 28.9371695 27.48598579 25.48037624 27.47949314 C23.94887936 27.49331532 23.94887936 27.49331532 22.38644314 27.50741673 C13.83324266 27.45707942 8.67795086 24.79950932 2.40151882 19.07617283 C-1.59034046 14.82951402 -3.63201149 10.53536854 -3.74691868 4.68554783 C-3.35076224 0.16936447 -3.35076224 0.16936447 0 0 Z " fill="#FFFFFF" transform="translate(259.4344186782837,349.8769521713257)"/>
<path d="M0 0 C1.0904811 0.00092179 2.1809622 0.00184359 3.30448818 0.00279331 C4.55115765 0.00141865 5.79782711 0.00004398 7.08227444 -0.00137234 C8.47653127 0.00216727 9.87078785 0.00580209 11.26504421 0.00952244 C12.72330123 0.0098043 14.18155839 0.00964659 15.63981533 0.00907993 C19.61071618 0.00879193 23.58158708 0.01468906 27.55248094 0.02165389 C31.69783233 0.02788702 35.84318434 0.02849119 39.9885397 0.0296793 C47.84377459 0.03279274 55.69899564 0.04100629 63.55422443 0.05102879 C72.49482531 0.06218954 81.43542684 0.06770028 90.37603295 0.07272422 C108.77255694 0.0831889 127.16906802 0.10078858 145.56558132 0.12304783 C145.66913722 8.81568396 143.81294659 14.70683485 137.56558132 21.12304783 C130.94573817 26.72200635 125.691548 28.00325014 117.14590359 27.91528416 C116.03899166 27.92740437 114.93207973 27.93952457 113.79162502 27.95201206 C110.15452127 27.98336247 106.51916957 27.97093612 102.88198757 27.95507908 C100.34047391 27.96166622 97.798964 27.96988564 95.25746059 27.97966099 C89.9389498 27.99299601 84.62106487 27.98472672 79.30264187 27.96020603 C73.1769791 27.93241135 67.05277881 27.95176182 60.927239 27.99508172 C55.00633354 28.03532637 49.08587863 28.03601542 43.16483784 28.02081966 C40.65832002 28.01867245 38.15176906 28.02711709 35.64532566 28.0465498 C32.13405621 28.06916815 28.62577499 28.04670027 25.11465359 28.01294041 C24.08941082 28.02868107 23.06416805 28.04442173 22.00785732 28.06063938 C13.00410436 27.89054789 7.31019001 23.96367213 1.12808132 17.62304783 C-2.31682111 12.11120393 -3.95847215 7.67371622 -3.43441868 1.12304783 C-2.43441868 0.12304783 -2.43441868 0.12304783 0 0 Z " fill="#FFFFFF" transform="translate(259.4344186782837,398.8769521713257)"/>
<path d="M0 0 C49.17 0 98.34 0 149 0 C149 8.49284244 147.18357224 13.26398719 141.6171875 19.42578125 C137.05968683 23.86218891 132.7139935 26.11428749 126.40315247 26.14717102 C124.98810928 26.15790398 124.98810928 26.15790398 123.54447937 26.16885376 C121.99456047 26.17288712 121.99456047 26.17288712 120.41333008 26.17700195 C119.32358887 26.18357315 118.23384766 26.19014435 117.11108398 26.19691467 C113.4972324 26.21665842 109.8834224 26.22831319 106.26953125 26.23828125 C105.03558813 26.24235678 103.80164501 26.2464323 102.53030968 26.25063133 C96.67196053 26.26934548 90.81362773 26.28390945 84.95525438 26.2922433 C78.20526575 26.30200529 71.45560595 26.32829876 64.70573312 26.36874419 C58.85007164 26.40262019 52.99451979 26.41439473 47.13876915 26.41844749 C44.65291808 26.42331648 42.1670706 26.43493923 39.68128395 26.45348549 C36.19847146 26.47785364 32.71651437 26.4769155 29.23364258 26.4699707 C28.21048447 26.48278076 27.18732635 26.49559082 26.13316345 26.50878906 C18.77174381 26.45540168 13.39110183 24.96496337 7.79296875 20.0703125 C2.00662263 13.05911939 0 9.57327007 0 0 Z " fill="#FFFFFF" transform="translate(256,302)"/>
<path d="M0 0 C48.51 0 97.02 0 147 0 C147 12.39658849 147 12.39658849 143.8125 15.9375 C143.17183594 16.659375 142.53117188 17.38125 141.87109375 18.125 C136.86097904 23.14557424 132.41476187 26.23772152 125.16264343 26.26742554 C124.21653198 26.27595551 123.27042053 26.28448547 122.29563904 26.29327393 C121.26955032 26.29236755 120.24346161 26.29146118 119.1862793 26.29052734 C118.09624603 26.29724457 117.00621277 26.30396179 115.88314819 26.31088257 C112.28012532 26.32987826 108.67728858 26.33378766 105.07421875 26.3359375 C102.56704125 26.34236453 100.05986451 26.34909282 97.5526886 26.35610962 C92.29626256 26.36808646 87.03988367 26.37187574 81.78344727 26.37060547 C75.72182789 26.36940497 69.66056511 26.39049189 63.59903592 26.4220928 C57.75296336 26.45147631 51.90703104 26.4585794 46.06089211 26.45738602 C43.58063107 26.45974336 41.10036729 26.46857429 38.62015343 26.48405075 C35.14710468 26.50369237 31.6749684 26.4978788 28.2019043 26.48583984 C27.18188828 26.49707886 26.16187225 26.50831787 25.11094666 26.51989746 C17.73739813 26.45509711 12.35793166 24.94257774 6.7578125 20.03515625 C0.73957829 12.76432306 0 10.09847695 0 0 Z " fill="#FFFFFF" transform="translate(770,302)"/>
</svg>
